<svg width="64" height="64" viewBox="0 0 64 64" xmlns="http://www.w3.org/2000/svg">
<defs><linearGradient id="g" x1="4" y1="4" x2="60" y2="60" gradientUnits="userSpaceOnUse"><stop offset="0" stop-color="#7045bc"/><stop offset="1" stop-color="#d45789"/></linearGradient></defs>
<rect x="4" y="4" width="56" height="56" rx="14" fill="url(#g)"/>
<path d="M33 16c.7 6.6 2.4 8.3 9 9-6.6.7-8.3 2.4-9 9-.7-6.6-2.4-8.3-9-9 6.6-.7 8.3-2.4 9-9Z" fill="#fff"/>
<path d="M22.5 34c.4 3.6 1.3 4.5 4.9 4.9-3.6.4-4.5 1.3-4.9 4.9-.4-3.6-1.3-4.5-4.9-4.9 3.6-.4 4.5-1.3 4.9-4.9Z" fill="#fff" fill-opacity=".85"/>
</svg>
